<svg width="198" height="196" viewBox="0 0 198 196" fill="none" xmlns="http://www.w3.org/2000/svg">
<path d="M115.757 48.7798L149.596 21.2717L138.63 63.4798L137.9 66.2933L140.788 65.9703L184.127 61.1236L152.084 90.7031L149.948 92.6748L152.553 93.9649L191.632 113.318L148.683 120.878L145.82 121.382L147.314 123.876L169.726 161.285L129.508 144.424L126.828 143.301L126.736 146.206L125.366 189.794L100.648 153.866L99 151.471L97.3523 153.866L72.6342 189.794L71.2638 146.206L71.1724 143.301L68.4915 144.424L28.2735 161.285L50.6859 123.876L52.1799 121.382L49.3169 120.878L6.36804 113.318L45.4474 93.9649L48.0524 92.6748L45.9164 90.7031L13.8725 61.1236L57.2115 65.9703L60.1004 66.2933L59.3695 63.4798L48.4044 21.2717L82.2431 48.7798L84.4988 50.6135L85.405 47.8514L99 6.41548L112.595 47.8514L113.501 50.6135L115.757 48.7798Z" fill="#FF4911" stroke="black" stroke-width="4"/>
</svg>
