<svg width="79" height="39" viewBox="0 0 79 39" fill="none" xmlns="http://www.w3.org/2000/svg">
<path d="M2 4.5C6.16667 1.16667 10.3333 1.16667 14.5 4.5C18.6667 7.83333 22.8333 7.83333 27 4.5C31.1667 1.16667 35.3333 1.16667 39.5 4.5C43.6667 7.83333 47.8333 7.83333 52 4.5C56.1667 1.16667 60.3333 1.16667 64.5 4.5C68.6667 7.83333 72.8333 7.83333 77 4.5" stroke="black" stroke-width="4" stroke-linecap="round"/>
<path d="M2 19.5C6.16667 16.1667 10.3333 16.1667 14.5 19.5C18.6667 22.8333 22.8333 22.8333 27 19.5C31.1667 16.1667 35.3333 16.1667 39.5 19.5C43.6667 22.8333 47.8333 22.8333 52 19.5C56.1667 16.1667 60.3333 16.1667 64.5 19.5C68.6667 22.8333 72.8333 22.8333 77 19.5" stroke="black" stroke-width="4" stroke-linecap="round"/>
<path d="M2 34.5C6.16667 31.1667 10.3333 31.1667 14.5 34.5C18.6667 37.8333 22.8333 37.8333 27 34.5C31.1667 31.1667 35.3333 31.1667 39.5 34.5C43.6667 37.8333 47.8333 37.8333 52 34.5C56.1667 31.1667 60.3333 31.1667 64.5 34.5C68.6667 37.8333 72.8333 37.8333 77 34.5" stroke="black" stroke-width="4" stroke-linecap="round"/>
</svg>
